<svg width="487" height="469" viewBox="0 0 487 469" fill="none" xmlns="http://www.w3.org/2000/svg">
<path d="M357.222 337.961C358.758 339.989 416.449 398.571 399.534 428.868C387.496 450.439 314.826 443.402 314.826 443.402L304.839 379.528L357.222 337.961Z" fill="#F9A528"/>
<path d="M340.967 448.173C327.908 448.173 317.261 447.236 314.48 446.959L311.715 446.698L300.96 378.022L357.806 332.899L359.987 335.749L361.101 336.97C382.91 360.654 417.301 404.309 402.583 430.612C394.479 445.254 363.982 448.173 340.967 448.173ZM317.922 440.084C339.269 441.82 387.826 442.434 396.407 427.125C405.441 410.931 391.03 380.265 356.822 342.847L308.703 381.026L317.922 440.084Z" fill="#000072"/>
<path d="M56.1246 280.14L51.9073 282.652C52.1301 283.244 52.3452 283.804 52.591 284.365C52.8368 284.926 53.0212 285.387 53.2362 285.863C53.2627 285.956 53.2988 286.046 53.3438 286.132C53.6434 286.846 53.966 287.538 54.2887 288.214L65.3582 281.638L56.1246 280.14Z" fill="#F9A528"/>
<path d="M39.5242 265.798C41.0623 275.118 43.4669 284.273 46.7067 293.146C46.9141 293.737 47.1369 294.336 47.3674 294.92C47.7976 296.034 48.2124 297.086 48.6502 298.062C49.1803 299.345 49.7103 300.559 50.2788 301.726C50.5016 302.21 50.732 302.709 50.9625 303.186C51.0026 303.273 51.0488 303.358 51.1007 303.439C51.4234 304.138 51.7767 304.814 52.1147 305.467L69.1146 294.444L70.9583 293.245L80.9447 294.444C79.7079 292.685 78.5249 290.872 77.4187 289.028L97.9599 275.662L120.714 260.866C95.6554 242.929 87.9198 204.789 86.322 183.848C86.1982 182.326 85.6901 180.861 84.8451 179.589C84.0001 178.317 82.846 177.28 81.491 176.576C80.136 175.872 78.6243 175.524 77.0979 175.564C75.5714 175.604 74.08 176.03 72.7635 176.804C70.978 177.816 69.2472 178.921 67.5783 180.115C66.8101 180.637 66.0419 181.198 65.2737 181.805C64.5055 182.412 63.7374 183.011 62.9692 183.656C60.3689 185.827 57.9346 188.19 55.6868 190.724C54.9724 191.546 54.258 192.383 53.5666 193.266C53.1057 193.827 52.6525 194.38 52.2223 194.987C51.7921 195.594 51.2237 196.316 50.7474 197.023C50.2711 197.729 49.8793 198.267 49.4645 198.905C40.2002 213.293 34.2007 234.618 39.5242 265.798Z" fill="#F9A528"/>
<g opacity="0.5">
<path opacity="0.5" d="M78.863 291.363C78.3637 290.595 77.8797 289.827 77.4111 289.059L79.7157 287.569C79.4699 287.177 79.2163 286.8 78.9475 286.386L119.546 259.983C95.425 241.708 87.8968 204.489 86.322 183.856C86.1983 182.334 85.6901 180.868 84.8452 179.597C84.0002 178.325 82.8461 177.288 81.4911 176.584C80.136 175.88 78.6244 175.532 77.0979 175.571C75.5715 175.611 74.0801 176.038 72.7636 176.812C71.4116 177.58 70.0058 178.456 68.5693 179.431C71.5345 179.938 77.0885 179.17 77.2575 181.398C78.863 202.369 79.8693 244.389 104.912 262.326L61.6249 290.488C62.6543 292.208 63.7528 293.906 64.8974 295.542L72.5024 290.595L78.863 291.363Z" fill="white"/>
</g>
<path d="M47.375 294.943C47.7898 296.049 48.2123 297.102 48.6578 298.077C49.1802 299.36 49.7102 300.566 50.2787 301.734C50.4938 302.226 50.7319 302.725 50.9624 303.201C50.9991 303.286 51.0455 303.366 51.1007 303.439C51.4233 304.146 51.769 304.814 52.1223 305.475L69.1146 294.436C61.548 277.713 54.4423 255.858 55.6022 240.663C58.7825 199.243 76.2817 181.774 79.8 175.921C78.6286 175.591 77.4026 175.502 76.1959 175.659C74.9891 175.816 73.8268 176.216 72.7788 176.835C70.9933 177.846 69.2625 178.952 67.5936 180.146C66.8254 180.668 66.0572 181.229 65.289 181.843C64.5208 182.458 63.7526 183.049 62.9845 183.687C59.5325 186.563 56.3821 189.783 53.5819 193.297C53.121 193.858 52.6678 194.419 52.2376 195.018C51.8074 195.617 51.2389 196.347 50.7627 197.053C50.2864 197.76 49.8946 198.306 49.4798 198.943C40.2001 213.293 34.2006 234.618 39.5241 265.798C41.0646 275.121 43.4665 284.281 46.699 293.161C46.9064 293.76 47.1368 294.352 47.375 294.943Z" fill="white"/>
<path d="M52.1147 309.078C51.814 309.078 51.5145 309.039 51.2236 308.962C50.7452 308.841 50.2973 308.621 49.9085 308.317C49.5196 308.013 49.1984 307.631 48.9652 307.196C48.5964 306.512 48.2431 305.821 47.9051 305.098C47.8252 304.951 47.7534 304.8 47.69 304.645C47.4595 304.169 47.2291 303.677 47.0063 303.193C46.4455 302.026 45.8924 300.789 45.3624 299.491C44.9399 298.538 44.502 297.47 44.0257 296.211C43.803 295.665 43.5572 295.005 43.3267 294.359C40.0281 285.29 37.5773 275.934 36.0059 266.413C31.2048 238.528 34.7307 215.167 46.4916 196.977C46.9295 196.301 47.3827 195.632 47.8283 194.995C48.3429 194.227 48.8807 193.504 49.4107 192.805C49.9408 192.106 50.3402 191.584 50.8626 190.962C53.7928 187.282 57.0928 183.913 60.7107 180.906C61.5327 180.215 62.3546 179.554 63.1458 178.963C63.9371 178.371 64.7437 177.757 65.604 177.165C67.3513 175.916 69.1615 174.757 71.0274 173.693C72.8686 172.623 74.9511 172.038 77.08 171.993C79.2089 171.947 81.3145 172.443 83.1997 173.433C85.0848 174.423 86.6879 175.876 87.8587 177.654C89.0295 179.433 89.7298 181.48 89.894 183.603C90.8696 196.208 96.1086 238.843 122.818 257.97C123.293 258.309 123.677 258.759 123.939 259.281C124.2 259.802 124.329 260.379 124.317 260.962C124.304 261.545 124.149 262.117 123.865 262.626C123.581 263.135 123.177 263.568 122.688 263.885L54.0659 308.517C53.482 308.885 52.8052 309.08 52.1147 309.078ZM77.3496 179.124C76.3735 179.13 75.4165 179.395 74.5764 179.892C72.8875 180.855 71.2492 181.904 69.6677 183.034C68.8995 183.58 68.1928 184.079 67.5168 184.609L67.4323 184.678C66.7563 185.185 66.0342 185.761 65.2891 186.391C62.0142 189.109 59.0281 192.156 56.3781 195.486C55.8942 196.062 55.5024 196.569 55.103 197.107C54.6036 197.76 54.1504 198.39 53.7049 199.043C53.2593 199.696 52.8752 200.241 52.4835 200.856C41.7289 217.487 38.5716 239.142 43.0578 265.199C44.5577 274.302 46.8979 283.246 50.0483 291.916C50.2557 292.508 50.4631 293.053 50.6859 293.583C51.1545 294.828 51.5463 295.788 51.9227 296.618L51.9688 296.733C52.4527 297.916 52.952 299.038 53.5051 300.182L53.5589 300.297L75.4521 286.048L114.63 260.59C88.9261 238.558 83.7716 196.877 82.796 184.125C82.7339 183.21 82.4351 182.326 81.9287 181.561C81.4224 180.796 80.7259 180.176 79.9076 179.762C79.1193 179.345 78.2414 179.126 77.3496 179.124Z" fill="#000072"/>
<g opacity="0.3">
<path opacity="0.3" d="M39.5242 265.798C41.0622 275.118 43.4668 284.273 46.7067 293.146C46.9141 293.737 47.1369 294.336 47.3673 294.92C47.7975 296.034 48.2123 297.086 48.6502 298.062C49.1802 299.345 49.7103 300.559 50.2788 301.726C50.5015 302.21 50.732 302.709 50.9624 303.186C51.0026 303.273 51.0488 303.358 51.1007 303.439C51.4233 304.138 51.7767 304.814 52.1147 305.467L69.1146 294.444L70.9583 293.245L80.9446 294.444C79.7079 292.685 78.5249 290.872 77.4187 289.028L97.9599 275.662C80.115 263.01 44.479 231.821 55.7098 190.724C54.9954 191.546 54.281 192.383 53.5896 193.266C53.1287 193.827 52.6755 194.38 52.2453 194.987C51.8151 195.594 51.2467 196.316 50.7704 197.023C50.2941 197.729 49.9023 198.267 49.4875 198.905C40.2002 213.293 34.2007 234.618 39.5242 265.798Z" fill="#000072"/>
</g>
<path d="M199.007 263.494C199.007 263.494 186.493 205.88 128.557 219.446C42.5738 239.542 -52.3123 383.246 45.3008 433.347C92.2753 457.452 319.604 461.378 336.266 425.58C351.898 392.057 357.906 324.948 357.906 324.948L199.007 263.494Z" fill="#F9A528"/>
<path d="M357.913 324.948C357.913 324.948 356.945 335.749 354.771 350.859C351.545 373.413 345.622 405.546 336.273 425.642C319.612 461.409 92.2676 457.483 45.3008 433.378C-52.3123 383.246 42.5738 239.542 128.557 219.423C167.734 210.259 186.124 233.604 193.937 249.697C196.124 254.099 197.826 258.725 199.014 263.494L357.913 324.948Z" fill="#F9A528"/>
<g opacity="0.3">
<path opacity="0.3" d="M203.547 437.172L199.414 451.945C135.44 452.213 68.4539 445.231 45.3009 433.347C11.9233 416.232 1.06885 388.185 4.62554 357.873C7.45245 379.843 19.8125 399.309 45.3393 412.414C51.3081 415.487 93.0051 428.815 113.277 412.783C128.365 400.845 153.146 365.485 174.64 360.208C157.886 395.437 165.368 427.639 182.89 432.955C189.643 434.947 196.554 436.358 203.547 437.172Z" fill="#000072"/>
</g>
<g opacity="0.5">
<path opacity="0.5" d="M357.913 324.948C357.913 324.948 357.414 330.479 356.377 339.152L200.074 278.681C200.074 278.681 186.823 217.687 125.476 232.044C83.9943 241.739 40.5996 278.581 15.3801 320.831C36.5128 273.972 83.7484 229.909 128.557 219.431C186.501 205.88 199.014 263.494 199.014 263.494L357.913 324.948Z" fill="white"/>
</g>
<path d="M357.913 324.948C357.913 324.948 351.898 392.049 336.274 425.58C330.95 437.003 304.125 444.378 268.543 448.342C269.188 445.569 271.477 442.45 275.787 438.978C315.003 407.374 236.233 367.705 241.656 308.817C242.542 299.77 244.793 290.91 248.332 282.537L357.913 324.948Z" fill="white"/>
<g opacity="0.3">
<path opacity="0.3" d="M357.913 324.948C357.913 324.948 356.945 335.749 354.771 350.859C324.666 356.198 277.354 359.478 228.474 342.809C198.139 332.469 175.416 307.918 175.416 307.918L180.924 247.592L193.937 249.666C196.126 254.078 197.829 258.714 199.014 263.494L357.913 324.948Z" fill="#000072"/>
</g>
<path d="M196.648 455.54C188.89 455.54 180.97 455.432 172.889 455.217C125.615 454.003 66.8254 448.411 43.6647 436.527C3.00473 415.656 -1.90396 381.717 1.16877 356.92C4.65633 328.497 20.8189 296.503 45.516 269.094C70.2131 241.685 100.095 222.411 127.773 215.935C145.918 211.695 161.712 213.7 174.709 221.912C193.315 233.673 200.282 254.391 202.057 260.805L361.739 322.552L361.501 325.24C361.255 328.006 355.255 393.386 339.538 427.117C336.688 433.262 329.36 438.255 317.146 442.48C292.648 450.838 248.639 455.54 196.648 455.54ZM145.357 220.936C139.971 220.98 134.607 221.64 129.371 222.903C74.031 235.839 15.1651 301.404 8.24374 357.788C5.47828 380.327 9.94143 411.177 46.9295 430.159C85.1005 449.755 254.339 456.415 314.795 435.682C327.416 431.35 331.695 426.994 333.024 424.098C346.467 395.237 352.766 340.035 354.08 327.307L195.919 266.113L195.519 264.262C195.419 263.816 189.919 240.003 170.814 227.965C163.417 223.279 154.898 220.936 145.357 220.936Z" fill="#000072"/>
<path d="M299.808 104.756C299.808 104.756 333.861 36.8795 392.382 17.8823C429.669 5.79107 445.263 131.343 390.077 172.287" fill="#F89B29"/>
<g opacity="0.3">
<path opacity="0.3" d="M396.783 163.707C433.072 131.189 430.038 59.5947 412.362 26.2017C412.122 25.7784 411.735 25.4581 411.275 25.3016C410.814 25.1452 410.312 25.1636 409.864 25.3534C409.416 25.5432 409.054 25.8911 408.846 26.3308C408.638 26.7706 408.599 27.2714 408.736 27.7381C421.096 64.1654 419.775 123.523 387.665 152.291L396.783 163.707Z" fill="#000072"/>
</g>
<g opacity="0.5">
<path opacity="0.5" d="M409.328 23.6744C408.531 22.5209 407.664 21.4177 406.731 20.3712C402.476 17.214 397.644 16.1769 392.382 17.8823C338.747 35.274 305.669 93.7251 300.515 103.396C303.119 104.071 305.87 103.901 308.371 102.909C310.872 101.918 312.992 100.157 314.426 97.8809C327.386 77.2936 357.038 37.5171 399.695 23.6898C402.815 22.6172 406.204 22.6118 409.328 23.6744Z" fill="white"/>
</g>
<path d="M390.093 175.921C389.34 175.923 388.605 175.688 387.994 175.248C387.382 174.809 386.926 174.187 386.689 173.472C386.452 172.757 386.447 171.986 386.675 171.268C386.903 170.551 387.351 169.923 387.957 169.476C428.279 139.509 428.279 63.6123 412.915 33.8912C409.074 26.5013 402.637 18.3201 393.488 21.2853C337.111 39.5681 303.334 105.693 303.004 106.362C302.576 107.207 301.83 107.848 300.931 108.144C300.031 108.441 299.051 108.369 298.204 107.944C297.358 107.519 296.714 106.776 296.414 105.878C296.114 104.979 296.183 103.999 296.605 103.151C298.026 100.324 332.018 33.6992 391.276 14.4792C402.153 10.9533 412.093 16.6839 419.276 30.6111C428.256 48.0181 431.805 76.7021 428.325 103.642C424.208 135.545 411.425 160.949 392.22 175.183C391.608 175.649 390.862 175.908 390.093 175.921Z" fill="#000072"/>
<path d="M377.133 141.698C372.647 131.988 358.897 120.842 347.328 112.722C344.861 110.98 342.779 108.75 341.21 106.169C339.642 103.589 338.621 100.714 338.21 97.7218C337.8 94.7301 338.008 91.686 338.824 88.7783C339.639 85.8707 341.043 83.1617 342.949 80.8196C357.076 63.3588 374.383 51.0832 386.136 43.9852C387.748 43.0211 389.57 42.4653 391.445 42.3663C393.32 42.2673 395.191 42.6281 396.895 43.4171C398.599 44.2062 400.084 45.3997 401.221 46.8938C402.359 48.3878 403.114 50.1372 403.421 51.9896C406.275 69.7805 405.227 87.9794 400.348 105.325C393.772 128.977 378.47 141.352 378.47 141.352" fill="#FF6C6C"/>
<path d="M400.371 105.325C393.764 128.969 378.478 141.352 378.478 141.352L377.141 141.706C374.637 136.29 369.259 130.437 362.983 124.89C357.985 120.559 352.759 116.497 347.328 112.722C344.863 110.978 342.782 108.746 341.215 106.165C339.648 103.584 338.627 100.709 338.217 97.7169C337.806 94.7252 338.014 91.6811 338.828 88.7732C339.642 85.8653 341.045 83.1556 342.949 80.8119C350.494 71.6136 359.075 63.3162 368.522 56.0841C374.159 51.7274 380.04 47.6956 386.136 44.0082C387.747 43.0459 389.568 42.4913 391.442 42.3928C393.315 42.2942 395.184 42.6546 396.887 43.4427C398.59 44.2308 400.074 45.4227 401.211 46.9149C402.349 48.4071 403.104 50.1544 403.413 52.005C406.279 69.7884 405.241 87.9826 400.371 105.325Z" fill="#FF8080"/>
<g opacity="0.3">
<path opacity="0.3" d="M367.062 113.636C365.99 117.486 364.626 121.248 362.983 124.89C357.985 120.559 352.759 116.497 347.328 112.722C344.863 110.978 342.782 108.746 341.215 106.165C339.648 103.584 338.627 100.709 338.217 97.7169C337.806 94.7252 338.014 91.6811 338.828 88.7732C339.642 85.8653 341.045 83.1556 342.949 80.8119C350.494 71.6136 359.075 63.3162 368.522 56.0841C369.333 57.3793 369.876 58.8237 370.12 60.3321C372.979 78.1116 371.936 96.3004 367.062 113.636Z" fill="#000072"/>
</g>
<path d="M375.413 142.497C374.101 140.055 372.499 137.78 370.642 135.722C368.773 133.581 366.775 131.557 364.658 129.661C360.372 125.81 355.86 122.219 351.146 118.906C349.973 118.061 348.787 117.229 347.589 116.41L343.932 113.944C341.094 111.975 338.785 109.337 337.211 106.262C335.646 103.149 334.87 99.6998 334.951 96.2169C335.033 92.734 335.97 89.3246 337.679 86.289C337.894 85.9126 338.11 85.5209 338.355 85.1752L338.709 84.6298L339.031 84.1689L340.33 82.3252C341.19 81.0884 342.119 79.9131 343.018 78.7071C344.877 76.3411 346.759 73.9904 348.757 71.7396C352.717 67.1947 356.955 62.9 361.447 58.8803C365.934 54.8845 370.651 51.155 375.574 47.7109C378.042 45.9901 380.565 44.3462 383.14 42.7791C384.431 42.0109 385.737 41.2428 387.074 40.4746C388.41 39.7064 389.708 39.0611 391.222 38.3467L391.329 38.3006C391.945 38.0098 392.639 37.9314 393.304 38.0778L393.634 38.147L393.834 38.2007L394.202 38.316C394.417 38.3928 394.648 38.4619 394.84 38.5464C395.22 38.7031 395.592 38.88 395.954 39.0765C396.305 39.2528 396.644 39.453 396.968 39.6757C397.293 39.872 397.606 40.0874 397.905 40.3209C398.489 40.769 399.048 41.2486 399.58 41.7574C400.064 42.2721 400.586 42.7791 401.008 43.2938C402.69 45.3955 404.068 47.7227 405.103 50.2075C406.07 52.556 406.828 54.9852 407.369 57.4668C407.677 58.7091 407.91 59.9686 408.068 61.2386C408.237 62.4907 408.345 63.7275 408.421 64.9566C408.872 74.6309 408.058 84.3226 406.002 93.7865C405.014 98.4896 403.731 103.126 402.161 107.668C400.618 112.224 398.72 116.652 396.484 120.911C394.258 125.197 391.577 129.23 388.487 132.941C385.403 136.666 381.778 139.908 377.732 142.559C377.506 142.694 377.236 142.739 376.978 142.686C376.719 142.632 376.491 142.483 376.337 142.268C376.183 142.053 376.116 141.789 376.148 141.527C376.18 141.264 376.31 141.024 376.511 140.853C383.74 135.161 388.956 127.379 392.72 119.075C396.418 110.669 399.027 101.824 400.486 92.7571C401.251 88.2338 401.764 83.6714 402.022 79.0912C402.324 74.5655 402.298 70.024 401.946 65.502C401.793 63.3375 401.435 61.1923 400.878 59.0953L400.448 57.5052C400.302 56.9828 400.11 56.4758 399.941 55.9688C399.626 54.9318 399.173 53.9716 398.811 52.9806C398.009 51.1336 396.954 49.4067 395.677 47.8491C395.385 47.465 395.04 47.1731 394.725 46.8274C394.404 46.5236 394.065 46.2388 393.711 45.9748C393.55 45.8447 393.377 45.7291 393.196 45.6291C393.036 45.5175 392.866 45.4199 392.689 45.3372C392.538 45.254 392.382 45.1821 392.22 45.1221C392.158 45.0948 392.094 45.0717 392.028 45.0529H391.975H392.09L394.172 44.7841C393.035 45.3372 391.729 46.0439 390.515 46.7276C389.301 47.4113 388.065 48.1641 386.843 48.8939C384.405 50.3739 382.014 51.9384 379.668 53.5875C374.973 56.8765 370.474 60.4367 366.194 64.2499C361.905 68.0463 357.837 72.0859 354.011 76.3487C352.083 78.4689 350.27 80.689 348.472 82.9167C347.604 84.0536 346.713 85.1829 345.868 86.3275L344.593 88.0559L344.27 88.486L344.017 88.8625C343.84 89.1083 343.687 89.3618 343.533 89.6306C341.691 92.7821 341.072 96.5011 341.794 100.079C342.517 103.658 344.53 106.845 347.451 109.035L351 111.616C352.198 112.507 353.389 113.398 354.564 114.312C359.312 117.954 363.821 121.898 368.061 126.119C372.24 130.437 376.296 135.084 378.816 140.915C378.993 141.362 378.995 141.86 378.819 142.309C378.643 142.757 378.303 143.121 377.869 143.329C377.434 143.536 376.937 143.57 376.478 143.424C376.019 143.278 375.633 142.963 375.397 142.543L375.413 142.497Z" fill="#000072"/>
<path d="M431.352 293.099C429.859 295.623 428.236 298.066 426.489 300.42C424.739 302.764 422.774 304.94 420.62 306.919C408.329 318.265 389.163 325.117 369.229 329.235C369.216 329.228 369.201 329.225 369.186 329.225C369.172 329.225 369.157 329.228 369.144 329.235C357.377 331.576 345.475 333.177 333.508 334.028C318.685 335.165 303.807 335.421 288.953 334.796L249.292 331.155L221.261 328.52L205.567 327.046C203.723 326.078 201.934 325.094 200.19 324.111C192.935 320.036 186.001 315.414 179.449 310.284L167.834 315.976C166.137 316.35 164.377 316.334 162.687 315.928C160.997 315.522 159.422 314.738 158.08 313.634C156.737 312.53 155.664 311.135 154.939 309.555C154.215 307.976 153.859 306.252 153.899 304.515L154.16 293.599L154.398 283.344L154.467 280.471L152.801 280.701L137.767 282.821C135.834 283.089 133.865 282.86 132.045 282.155C130.226 281.45 128.616 280.293 127.368 278.793C126.12 277.293 125.275 275.499 124.913 273.582C124.551 271.664 124.684 269.686 125.3 267.834L148.43 199.404V199.335C151.273 186.997 155.564 175.038 161.212 163.707C189.581 107.115 242.094 90.0608 242.094 90.0608C304.778 67.3072 361.931 95.6071 384.446 117.155C432.473 163.138 418.293 237.475 418.293 237.475C424.67 240.96 430.038 246.032 433.879 252.201C439.471 261.42 441.999 275.016 431.352 293.099Z" fill="#F89B29"/>
<g opacity="0.5">
<path opacity="0.5" d="M387.135 128.639C403.313 144.118 412.416 162.823 417.386 180.822C413.338 159.543 404.104 135.975 384.493 117.155C361.992 95.6455 304.824 67.3072 242.14 90.0608C242.14 90.0608 195.166 105.325 166.09 154.857C166.451 159.274 174.11 155.794 186.831 141.675C214.002 111.562 244.821 101.561 244.821 101.561C307.482 78.7762 364.635 107.099 387.135 128.639Z" fill="white"/>
</g>
<path d="M431.252 293.176C428.171 298.103 424.601 302.707 420.597 306.919C416.057 311.766 410.012 315.308 403.298 318.311L403.213 318.35C398.005 320.654 392.397 322.682 386.782 324.726L386.643 324.779C376.643 328.338 366.366 331.065 355.916 332.93C335.391 336.602 314.529 338.046 293.693 337.239C286.902 336.993 280.473 336.471 274.55 335.803C263.865 334.543 255.069 332.868 249.308 331.125L249.146 331.078C225.478 323.85 210.199 309.108 204.691 295.588C204.071 294.114 203.558 292.597 203.155 291.048C202.026 286.539 202.064 282.299 203.332 278.665C214.394 246.985 240.473 262.941 282.785 264.961C325.097 266.981 338.225 244.22 336.957 194.419C335.69 144.617 315.663 122.148 312.153 114.405C308.642 106.661 323.821 101.868 345.453 128.386C367.085 154.903 362.983 203.076 362.983 203.076C363.029 227.558 367.592 249.344 389.808 244.089C412.024 238.835 424.638 243.989 424.638 243.989C429.121 247.724 432.908 252.224 435.823 257.279C440.332 265.36 440.57 278.089 431.252 293.176Z" fill="white"/>
<g opacity="0.3">
<path opacity="0.3" d="M431.352 293.099C429.859 295.623 428.236 298.066 426.489 300.42C424.739 302.764 422.774 304.94 420.62 306.919C415.446 311.546 409.62 315.387 403.328 318.319L403.244 318.357C397.929 320.88 392.437 323.011 386.812 324.733C381.135 326.515 375.213 327.998 369.229 329.235C369.216 329.228 369.201 329.225 369.186 329.225C369.172 329.225 369.157 329.228 369.144 329.235C364.677 330.223 360.266 331.451 355.931 332.914C335.406 336.586 314.544 338.031 293.708 337.224C292.076 336.509 290.482 335.712 288.93 334.835L249.292 331.155L221.276 328.52L205.582 327.046C203.739 326.078 201.949 325.094 200.205 324.111C192.95 320.036 186.016 315.414 179.464 310.284L167.849 315.976C166.152 316.35 164.392 316.334 162.702 315.928C161.013 315.522 159.437 314.738 158.095 313.634C156.753 312.53 155.679 311.135 154.955 309.555C154.231 307.976 153.875 306.252 153.914 304.515L154.176 293.599L154.414 283.344L154.483 280.471L152.816 280.701L137.783 282.821C135.85 283.089 133.88 282.86 132.061 282.155C130.241 281.45 128.631 280.293 127.383 278.793C126.135 277.293 125.29 275.499 124.928 273.582C124.566 271.664 124.699 269.686 125.315 267.834L148.445 199.404V199.335C151.289 186.997 155.579 175.038 161.228 163.707C161.228 163.707 129.909 263.901 146.355 265.222C162.802 266.543 167.98 263.609 167.98 263.609C167.98 263.609 159.868 296.28 169.562 297.179C179.257 298.077 193.668 286.14 193.668 286.14C193.668 286.14 196.564 290.18 204.653 295.619C217.213 304.069 242.348 315.976 288.685 321.407C342.02 327.652 403.19 316.859 431.252 293.176C431.289 293.156 431.322 293.13 431.352 293.099Z" fill="#000072"/>
</g>
<path d="M344.332 254.683C344.524 258.623 350.961 263.832 357.391 268.087C361.192 270.571 365.681 271.791 370.217 271.573C374.752 271.355 379.103 269.711 382.649 266.874C388.648 262.026 394.563 256.219 394.371 252.278C393.995 244.351 382.672 242.415 368.852 243.06C355.033 243.705 343.955 246.763 344.332 254.683Z" fill="#000072"/>
<g opacity="0.54">
<path opacity="0.54" d="M363.659 250.573C363.698 251.487 366.24 252.647 368.791 253.584C372.113 254.694 375.731 254.518 378.931 253.092C381.374 251.917 383.793 250.519 383.747 249.605C383.663 247.761 379.138 247.408 373.584 247.669C368.03 247.93 363.567 248.729 363.659 250.573Z" fill="white"/>
</g>
<path d="M293.42 176.384C301.125 173.442 306.099 167.725 304.529 163.615C302.96 159.504 295.441 158.558 287.737 161.5C280.032 164.442 275.058 170.159 276.627 174.269C278.197 178.379 285.715 179.326 293.42 176.384Z" fill="white"/>
<path d="M400.695 171.027C402.047 166.84 396.781 161.391 388.932 158.856C381.084 156.321 373.626 157.66 372.273 161.847C370.921 166.033 376.187 171.482 384.036 174.017C391.884 176.552 399.342 175.213 400.695 171.027Z" fill="white"/>
<path d="M270.678 231.361C270.195 228.429 270.148 225.441 270.54 222.496C270.919 219.433 271.848 216.463 273.283 213.731C274.029 212.289 274.962 210.951 276.056 209.752C277.166 208.509 278.434 207.416 279.827 206.502C282.611 204.734 285.766 203.635 289.046 203.291C292.481 202.867 295.965 203.5 299.032 205.104C301.939 206.721 304.371 209.073 306.084 211.926C307.684 214.532 308.834 217.388 309.487 220.376C310.163 223.29 310.342 226.297 310.017 229.271C309.957 229.696 309.748 230.086 309.427 230.371C309.106 230.656 308.694 230.817 308.264 230.825C307.835 230.834 307.417 230.689 307.085 230.416C306.753 230.144 306.529 229.763 306.453 229.34V229.256C305.693 224.293 303.775 219.58 300.853 215.498C299.553 213.72 297.849 212.277 295.882 211.288C294.001 210.422 291.912 210.111 289.86 210.389C288.734 210.518 287.623 210.752 286.541 211.088C285.497 211.405 284.494 211.843 283.553 212.394C281.637 213.524 280.009 215.083 278.798 216.949C276.225 220.79 274.857 226.037 274.281 231.099V231.238C274.232 231.667 274.031 232.065 273.712 232.358C273.394 232.65 272.981 232.819 272.549 232.832C272.117 232.845 271.695 232.702 271.36 232.429C271.025 232.156 270.799 231.771 270.724 231.345L270.678 231.361Z" fill="#000072"/>
<path d="M404.465 225.853C403.927 221.512 402.729 216.996 400.54 213.754C399.516 212.188 398.15 210.874 396.545 209.913C394.912 209 393.112 208.425 391.252 208.223C389.563 208.003 387.845 208.255 386.29 208.953C384.641 209.751 383.205 210.93 382.103 212.394C379.555 215.847 377.81 219.826 376.995 224.04V224.14C376.909 224.557 376.679 224.93 376.345 225.194C376.01 225.458 375.594 225.595 375.168 225.581C374.742 225.568 374.335 225.404 374.019 225.119C373.702 224.834 373.497 224.446 373.438 224.024C373.129 221.408 373.27 218.758 373.853 216.189C374.423 213.548 375.439 211.023 376.857 208.722C378.4 206.189 380.583 204.106 383.186 202.684C385.949 201.273 389.076 200.737 392.151 201.148C395.055 201.478 397.839 202.489 400.279 204.098C402.718 205.734 404.697 207.969 406.025 210.589C407.251 213.016 408.032 215.644 408.329 218.348C408.472 219.641 408.523 220.942 408.483 222.242C408.457 223.55 408.315 224.854 408.06 226.137C407.978 226.557 407.749 226.935 407.413 227.201C407.078 227.467 406.658 227.605 406.23 227.589C405.802 227.573 405.394 227.405 405.078 227.115C404.763 226.825 404.562 226.432 404.511 226.006L404.465 225.853Z" fill="#000072"/>
<path d="M302.934 339.905C227.238 339.905 189.382 320.7 181.984 316.529L168.587 319.487C166.361 319.977 164.053 319.956 161.836 319.423C159.62 318.891 157.554 317.862 155.793 316.414C154.033 314.966 152.625 313.137 151.675 311.065C150.726 308.993 150.259 306.732 150.312 304.453L150.773 284.603L138.244 286.355C135.709 286.711 133.126 286.414 130.739 285.492C128.352 284.571 126.239 283.055 124.602 281.089C122.964 279.123 121.855 276.771 121.381 274.257C120.906 271.742 121.081 269.148 121.889 266.72L146.21 193.489L156.588 165.066C184.703 105.916 237.892 87.7256 240.934 86.7116C269.329 76.4564 300.224 75.3576 329.275 83.5697C351.514 89.7152 373.062 101.345 386.889 114.589C407.154 133.993 419.552 161.947 422.748 195.433C424.116 209.588 423.827 223.855 421.888 237.944C427.472 241.178 438.02 248.867 441.254 262.103C444.196 274.271 440.186 287.884 429.331 302.571C411.01 327.36 365.91 335.434 331.303 337.854C330.379 337.882 329.48 337.551 328.794 336.931C328.108 336.31 327.689 335.448 327.624 334.526C327.559 333.603 327.854 332.691 328.447 331.981C329.04 331.271 329.885 330.818 330.804 330.717C363.913 328.413 406.854 320.908 423.578 298.323C433.119 285.418 436.721 273.795 434.332 263.755C431.352 251.295 419.829 244.765 416.388 243.068L413.96 241.862L414.459 239.196C414.598 238.428 428.002 163.806 381.973 119.736C358.635 97.397 302.458 71.9548 243.323 93.4332L243.208 93.4793C242.686 93.6483 190.111 111.37 163.117 167.955L152.962 195.847L128.687 268.971C128.264 270.244 128.172 271.603 128.421 272.922C128.67 274.24 129.251 275.472 130.109 276.503C130.968 277.534 132.075 278.329 133.327 278.812C134.578 279.295 135.932 279.451 137.26 279.265L158.124 276.353L157.471 304.622C157.446 305.817 157.692 307.002 158.191 308.087C158.69 309.173 159.428 310.132 160.351 310.89C161.274 311.649 162.357 312.189 163.519 312.468C164.681 312.748 165.891 312.76 167.058 312.504L183.274 308.924L184.519 309.692C184.88 309.915 222.06 332.738 302.942 332.738C303.892 332.738 304.802 333.115 305.473 333.786C306.145 334.458 306.522 335.368 306.522 336.317C306.522 337.267 306.145 338.177 305.473 338.849C304.802 339.52 303.892 339.897 302.942 339.897L302.934 339.905Z" fill="#000072"/>
<path d="M416.495 181.298C415.675 181.296 414.88 181.013 414.244 180.496C413.608 179.978 413.169 179.258 413 178.456C409.458 161.648 403.244 146.83 394.563 134.408C394.037 133.63 393.837 132.677 394.007 131.753C394.177 130.829 394.703 130.009 395.472 129.47C396.241 128.931 397.192 128.715 398.118 128.87C399.044 129.025 399.873 129.538 400.425 130.298C409.697 143.519 416.288 159.22 420.029 176.981C420.14 177.502 420.133 178.042 420.008 178.56C419.884 179.079 419.645 179.563 419.309 179.977C418.973 180.391 418.549 180.724 418.067 180.953C417.586 181.181 417.059 181.299 416.526 181.298H416.495Z" fill="#000072"/>
<path d="M419.637 204.651C418.722 204.65 417.843 204.3 417.179 203.671C416.514 203.043 416.116 202.184 416.065 201.271C414.828 181.859 410.503 164.344 403.213 149.219C402.969 148.791 402.816 148.318 402.763 147.828C402.71 147.339 402.759 146.844 402.906 146.374C403.054 145.904 403.296 145.47 403.619 145.098C403.941 144.726 404.337 144.425 404.782 144.213C405.226 144.001 405.709 143.883 406.201 143.867C406.693 143.85 407.184 143.935 407.641 144.117C408.099 144.298 408.514 144.572 408.861 144.921C409.208 145.27 409.48 145.687 409.658 146.146C417.34 162.109 421.949 180.514 423.209 200.848C423.268 201.794 422.949 202.725 422.323 203.437C421.696 204.148 420.813 204.582 419.867 204.643L419.637 204.651Z" fill="#000072"/>
<path d="M394.594 273.18C394.594 273.18 399.557 283.935 392.635 288.621C383.701 294.651 374.199 287.645 369.728 282.253C369.728 282.253 360.663 298.385 346.982 292.854C337.818 289.159 340.936 276.407 340.936 276.407" fill="white"/>
<path d="M394.594 273.18C394.594 273.18 399.557 283.935 392.635 288.621C383.701 294.651 374.199 287.645 369.728 282.253C369.728 282.253 360.663 298.385 346.982 292.854C337.818 289.159 340.936 276.407 340.936 276.407" fill="white"/>
<g opacity="0.3">
<path opacity="0.3" d="M346.974 292.854C360.663 298.392 369.728 282.253 369.728 282.253C374.183 287.63 383.709 294.651 392.628 288.629C396.845 285.779 396.653 280.655 395.862 277.106C395.266 277.966 394.507 278.7 393.626 279.264C385.361 284.703 376.619 279.579 371.618 274.571L368.86 274.732C365.902 278.788 357.744 287.899 346.667 283.559C345.281 283.035 344.031 282.205 343.01 281.132C341.989 280.059 341.222 278.769 340.767 277.359C340.237 280.394 339.331 289.766 346.974 292.854Z" fill="#000072"/>
</g>
<path d="M395.024 272.981C396.756 274.186 398.052 275.918 398.719 277.92C399.431 280.016 399.553 282.266 399.073 284.427C398.971 285.024 398.806 285.608 398.581 286.17C398.007 287.653 397.145 289.008 396.046 290.157L395.332 290.772L394.563 291.371C394.325 291.548 394.095 291.671 393.857 291.824C393.388 292.124 392.912 292.393 392.428 292.669C391.403 293.156 390.336 293.547 389.24 293.837C387.041 294.414 384.741 294.487 382.511 294.052C380.409 293.641 378.381 292.916 376.496 291.901C372.99 289.933 369.882 287.328 367.331 284.219L372.363 283.766C371.801 284.713 371.188 285.628 370.527 286.508C369.897 287.361 369.221 288.183 368.507 288.974C367.066 290.599 365.448 292.058 363.682 293.322C361.833 294.647 359.781 295.664 357.606 296.334C355.34 297.015 352.964 297.254 350.608 297.04C350.009 297.04 349.44 296.887 348.849 296.802C348.257 296.718 347.712 296.549 347.143 296.403C346.575 296.257 346.06 296.065 345.492 295.819C344.923 295.573 344.347 295.25 343.779 294.958C341.575 293.586 339.9 291.51 339.024 289.067C338.262 286.894 338.043 284.568 338.386 282.291C338.651 280.173 339.352 278.133 340.445 276.299C340.478 276.244 340.522 276.195 340.574 276.157C340.626 276.118 340.686 276.091 340.749 276.076C340.812 276.061 340.877 276.058 340.941 276.069C341.005 276.08 341.066 276.103 341.121 276.138C341.181 276.175 341.233 276.224 341.272 276.282C341.312 276.341 341.339 276.407 341.351 276.476V276.553C341.609 278.432 341.975 280.294 342.45 282.13C342.849 283.716 343.489 285.232 344.347 286.624C345.068 287.733 346.036 288.661 347.174 289.335C347.481 289.464 347.778 289.613 348.065 289.781C348.372 289.942 348.78 290.065 349.133 290.219L350.231 290.572C350.6 290.641 351 290.772 351.345 290.81C354.349 291.348 357.429 290.273 360.149 288.352C361.539 287.352 362.815 286.2 363.951 284.918C364.543 284.265 365.096 283.589 365.618 282.883C366.122 282.212 366.589 281.515 367.016 280.793L369.206 276.952L372.056 280.355C374.092 282.792 376.608 284.784 379.445 286.209C382.211 287.484 385.046 287.991 387.527 287.254C388.168 287.094 388.793 286.875 389.393 286.601C389.685 286.424 389.977 286.247 390.285 286.086C390.431 286.001 390.607 285.925 390.73 285.84L391.045 285.594L391.375 285.364C391.475 285.279 391.544 285.172 391.637 285.08C391.828 284.91 391.992 284.71 392.121 284.488C392.292 284.278 392.434 284.045 392.543 283.797C392.683 283.539 392.791 283.266 392.866 282.983C393.186 281.611 393.374 280.211 393.426 278.804C393.548 276.998 393.784 275.202 394.133 273.426V273.373C394.166 273.231 394.253 273.108 394.374 273.03C394.496 272.951 394.644 272.922 394.786 272.95C394.867 272.942 394.948 272.953 395.024 272.981Z" fill="#000072"/>
<path d="M370.473 265.883C370.78 267.419 371.034 268.917 371.241 270.453C371.449 271.99 371.633 273.526 371.756 275.063C371.885 276.654 371.921 278.252 371.863 279.848C371.844 281.665 371.498 283.463 370.842 285.156L370.788 285.295C370.515 285.958 369.99 286.485 369.328 286.761C368.666 287.037 367.921 287.039 367.258 286.766C366.595 286.493 366.068 285.968 365.792 285.306C365.516 284.644 365.514 283.899 365.787 283.236C365.856 283.068 365.943 282.908 366.048 282.76C366.626 281.69 367.013 280.528 367.193 279.326C367.451 277.921 367.628 276.503 367.723 275.078C367.916 272.134 367.937 269.182 367.784 266.236C367.77 265.897 367.884 265.566 368.102 265.307C368.321 265.048 368.629 264.88 368.966 264.838C369.302 264.795 369.642 264.881 369.918 265.077C370.195 265.273 370.387 265.566 370.458 265.898L370.473 265.883Z" fill="#000072"/>
<path d="M270.801 105.586C270.801 105.586 247.756 33.2075 192.915 5.33016C157.978 -12.4379 122.972 109.135 171.068 158.199" fill="#F89B29"/>
<g opacity="0.5">
<path opacity="0.5" d="M192.915 5.33017C187.161 2.40339 181.392 3.27911 176.015 6.9664C178.563 6.92722 181.079 7.52672 183.336 8.71017C223.281 29.0133 246.327 72.938 255.945 95.2922C257.073 97.9259 259.06 100.1 261.582 101.46C264.104 102.82 267.013 103.286 269.833 102.782C264.963 89.2389 241.334 29.9658 192.915 5.33017Z" fill="white"/>
</g>
<path d="M269.657 105.947C266.075 100.561 262.906 94.9113 260.177 89.0468C257.297 83.3315 254.547 77.5241 251.558 71.8933C248.551 66.2375 245.23 60.7543 241.61 55.4695C238.024 50.1948 234.162 45.1126 230.041 40.2441C225.94 35.3959 221.54 30.8085 216.867 26.509C212.228 22.2116 207.25 18.2965 201.98 14.8019C200.704 13.88 199.322 13.1195 197.993 12.2822C197.317 11.8751 196.656 11.4449 195.972 11.0531L193.898 9.93158L191.832 8.81003L191.317 8.52581L190.864 8.32608L189.981 7.9343C188.819 7.50163 187.6 7.24278 186.363 7.16612C185.122 7.13356 183.884 7.28895 182.691 7.62703C181.427 8.01326 180.217 8.55515 179.088 9.24022C176.646 10.7698 174.456 12.6693 172.597 14.871C168.644 19.6028 165.388 24.8745 162.925 30.5266C160.331 36.2844 158.196 42.2385 156.542 48.3331C153.21 60.6116 151.404 73.2539 151.164 85.9741C150.934 98.6568 152.232 111.409 155.712 123.484C156.603 126.496 157.609 129.461 158.785 132.365C159.995 135.231 161.391 138.015 162.964 140.699L167.619 148.719C169.284 151.488 170.73 154.382 171.944 157.377C172.004 157.536 172.031 157.706 172.025 157.876C172.019 158.046 171.979 158.213 171.907 158.367C171.836 158.522 171.734 158.66 171.608 158.775C171.483 158.89 171.336 158.979 171.176 159.036C170.86 159.163 170.508 159.163 170.192 159.036C167.038 157.553 164.228 155.429 161.942 152.798C159.71 150.212 157.785 147.377 156.204 144.348C153.204 138.281 150.727 131.969 148.798 125.482C145.227 112.577 143.598 99.2127 143.966 85.8281C144.226 72.5154 146.122 59.2852 149.613 46.4357C151.369 39.97 153.634 33.6537 156.388 27.546C159.139 21.2646 162.774 15.4082 167.181 10.1544C169.543 7.38053 172.324 4.99334 175.424 3.07938C177.079 2.09204 178.852 1.31773 180.701 0.774833C182.639 0.213217 184.653 -0.045894 186.67 0.00664941C188.682 0.119608 190.666 0.53659 192.554 1.24343L193.891 1.83493L194.559 2.1422L195.112 2.44179L197.324 3.64016L199.537 4.84621C200.267 5.26103 200.973 5.71425 201.695 6.15212C203.109 7.04321 204.584 7.85749 205.944 8.83308C211.517 12.5341 216.786 16.675 221.699 21.2162C226.602 25.7235 231.22 30.5313 235.526 35.612C239.802 40.6848 243.808 45.9798 247.525 51.475C251.243 56.9444 254.677 62.5983 258.019 68.2982C261.404 73.9713 264.387 79.8753 266.945 85.9664C269.48 92.0658 271.554 98.3802 271.93 105.248C271.94 105.409 271.917 105.57 271.864 105.722C271.81 105.875 271.727 106.015 271.62 106.135C271.512 106.255 271.381 106.352 271.235 106.422C271.09 106.491 270.932 106.531 270.771 106.538C270.56 106.551 270.351 106.509 270.161 106.418C269.972 106.326 269.809 106.188 269.687 106.016L269.657 105.947Z" fill="#000072"/>
<path d="M188.652 130.006C194.597 121.111 209.915 112.254 222.613 106.031C225.321 104.696 227.726 102.817 229.677 100.513C231.629 98.2093 233.086 95.5287 233.959 92.6379C234.831 89.7471 235.1 86.7078 234.748 83.7088C234.397 80.7097 233.433 77.815 231.916 75.2042C220.693 55.7537 205.506 40.9278 195.043 32.086C193.602 30.8823 191.889 30.049 190.052 29.6586C188.215 29.2682 186.311 29.3325 184.505 29.8459C182.699 30.3593 181.046 31.3063 179.689 32.6045C178.333 33.9026 177.314 35.5126 176.722 37.2943C171.114 54.4182 169.3 72.5573 171.406 90.4526C174.233 114.842 187.407 129.461 187.407 129.461" fill="#FF6C6C"/>
<path d="M171.375 90.4526C174.21 114.835 187.376 129.453 187.376 129.453L188.644 130.006C191.963 125.052 198.185 120.104 205.252 115.611C210.86 112.102 216.652 108.899 222.605 106.016C225.314 104.68 227.72 102.802 229.672 100.497C231.625 98.1931 233.083 95.5123 233.957 92.621C234.831 89.7298 235.101 86.6899 234.751 83.6899C234.401 80.6899 233.439 77.7937 231.923 75.1811C225.906 64.9173 218.728 55.3803 210.53 46.7583C205.64 41.5765 200.459 36.6778 195.012 32.086C193.572 30.8839 191.86 30.0517 190.024 29.6618C188.189 29.2718 186.286 29.3359 184.482 29.8484C182.677 30.3609 181.024 31.3064 179.668 32.6027C178.312 33.899 177.292 35.5068 176.699 37.2866C171.085 54.4118 169.268 72.5543 171.375 90.4526Z" fill="#FF8080"/>
<g opacity="0.3">
<path opacity="0.3" d="M202.971 103.857C203.441 107.828 204.211 111.757 205.275 115.611C210.875 112.103 216.66 108.9 222.605 106.016C225.314 104.68 227.72 102.802 229.672 100.497C231.625 98.1931 233.083 95.5123 233.957 92.621C234.831 89.7298 235.101 86.6899 234.751 83.6899C234.402 80.6899 233.439 77.7937 231.924 75.1811C225.906 64.9173 218.728 55.3803 210.53 46.7583C209.525 47.9108 208.762 49.2536 208.286 50.7068C202.68 67.8282 200.866 85.9647 202.971 103.857Z" fill="#000072"/>
</g>
<path d="M188.606 128.017C188.66 127.617 188.776 127.228 188.951 126.865C189.152 126.64 189.364 126.427 189.589 126.227L190.396 125.459C191.479 124.429 192.585 123.415 193.706 122.44C195.942 120.466 198.262 118.599 200.62 116.778C205.367 113.164 210.334 109.85 215.492 106.853C216.79 106.085 218.089 105.371 219.41 104.672C220.07 104.318 220.731 103.965 221.399 103.635L222.406 103.128L222.905 102.874L223.312 102.636C226.617 100.882 229.153 97.9643 230.43 94.4479C231.707 90.9314 231.634 87.0663 230.226 83.6004C229.803 82.548 229.035 81.2113 228.375 79.9669L226.323 76.1874L224.096 72.5155L222.997 70.6795L221.799 68.8974L219.41 65.3023L216.859 61.8454C216.03 60.6855 215.131 59.5409 214.232 58.4501C213.333 57.3592 212.473 56.1993 211.521 55.1315C207.829 50.7632 203.881 46.6179 199.698 42.7177C197.624 40.7511 195.466 38.8767 193.284 37.0715C192.178 36.1881 191.087 35.2816 189.958 34.452C189.397 34.0218 188.836 33.5993 188.268 33.1999C187.699 32.8004 187.115 32.3779 186.631 32.0553L188.936 32.7466H189.059C189.005 32.7466 188.967 32.7466 188.89 32.7466C188.813 32.7466 188.613 32.8081 188.444 32.8619C188.271 32.9121 188.102 32.9737 187.937 33.0462C187.755 33.1127 187.578 33.1923 187.407 33.2844C187.033 33.4703 186.669 33.6754 186.316 33.8989C185.963 34.1755 185.594 34.3982 185.249 34.7132C183.77 36.0089 182.477 37.5031 181.408 39.1533C180.257 40.9491 179.252 42.8347 178.404 44.7918C178.174 45.2911 177.951 45.7827 177.782 46.2667C177.613 46.7506 177.413 47.2346 177.252 47.7493C177.091 48.2639 176.914 48.7709 176.768 49.2856C176.622 49.8003 176.461 50.338 176.33 50.8835C174.252 59.75 173.289 68.8414 173.465 77.9466C173.505 87.0992 174.752 96.2065 177.175 105.033C178.398 109.398 180.083 113.621 182.199 117.631L182.967 119.121C183.251 119.613 183.559 120.081 183.843 120.565C184.411 121.541 185.057 122.455 185.71 123.369C186.363 124.283 187.077 125.144 187.761 126.035L188.175 126.542C188.256 126.648 188.319 126.768 188.36 126.895C188.475 127.21 188.513 127.579 188.606 128.017ZM188.644 131.996C187.876 131.56 187.144 131.065 186.455 130.513C186.094 130.221 185.748 129.914 185.418 129.599C185.264 129.446 185.08 129.261 184.972 129.138L184.673 128.785C183.904 127.848 183.029 126.957 182.322 125.966C181.615 124.975 180.832 124.015 180.179 122.985C179.841 122.47 179.487 121.971 179.172 121.449L178.266 119.843C175.84 115.631 173.865 111.173 172.374 106.546C169.468 97.3329 167.794 87.7756 167.396 78.1232C166.857 68.4672 167.531 58.7818 169.401 49.2933C169.524 48.6864 169.67 48.0796 169.824 47.4727C169.977 46.8659 170.131 46.259 170.323 45.6444C170.67 44.4042 171.091 43.1858 171.583 41.9956L172.297 40.2441C172.543 39.6603 172.843 39.0918 173.111 38.5157C173.634 37.3557 174.317 36.2111 174.947 35.0973C176.358 32.7612 178.091 30.6355 180.094 28.7828C180.601 28.2912 181.208 27.861 181.777 27.4078C182.395 26.971 183.039 26.5708 183.705 26.2094C184.043 26.0109 184.394 25.8363 184.757 25.687C185.125 25.5136 185.502 25.3597 185.886 25.2261C186.291 25.0794 186.704 24.9562 187.123 24.8574C187.338 24.8036 187.592 24.7575 187.83 24.7114C187.937 24.7114 188.091 24.7114 188.237 24.6577H188.452H188.821L190.142 24.5885L191.164 25.3029C191.886 25.8176 192.47 26.2478 193.092 26.7318C193.714 27.2157 194.306 27.6689 194.897 28.1529C196.088 29.0978 197.202 30.0887 198.385 31.072C200.643 33.0693 202.863 35.1126 204.991 37.2175C209.264 41.45 213.284 45.9312 217.028 50.6376C217.989 51.7899 218.849 53.019 219.771 54.202C220.693 55.385 221.576 56.5987 222.413 57.8432L224.971 61.5382L227.368 65.3791L228.551 67.2458L229.665 69.2046L231.877 73.1147L233.929 77.1323C234.67 78.5167 235.337 79.9399 235.926 81.3957C237.129 84.5964 237.529 88.0437 237.09 91.4349C236.651 94.8262 235.386 98.0578 233.406 100.846C231.438 103.606 228.817 105.836 225.778 107.337L225.225 107.629L224.741 107.86L223.765 108.313C223.112 108.612 222.475 108.935 221.83 109.258C220.539 109.888 219.272 110.564 217.989 111.24C212.92 113.981 208.03 117.039 203.347 120.396C201.004 122.071 198.738 123.823 196.495 125.658C195.381 126.573 194.298 127.51 193.222 128.47L191.471 130.068C190.612 130.814 189.671 131.461 188.667 131.996H188.644Z" fill="#000072"/>
<g opacity="0.1">
<path opacity="0.1" d="M336.573 221.474C335.894 228.904 333.497 236.075 329.57 242.42C325.643 248.764 320.295 254.108 313.948 258.031C307.6 261.953 300.428 264.345 292.997 265.018C285.566 265.692 278.081 264.628 271.132 261.911C267.851 260.633 264.726 258.989 261.813 257.01C255.215 252.55 249.821 246.529 246.112 239.48C242.092 231.828 240.21 223.233 240.665 214.6C241.12 205.968 243.894 197.618 248.695 190.43C253.497 183.242 260.148 177.482 267.948 173.756C275.748 170.031 284.408 168.478 293.017 169.261C300.638 169.942 307.985 172.436 314.446 176.535C320.907 180.633 326.294 186.217 330.159 192.821C335.245 201.464 337.489 211.487 336.573 221.474Z" fill="white"/>
</g>
<path d="M304.471 171.711L261.813 256.979C255.215 252.52 249.821 246.498 246.112 239.45L281.018 169.645C284.984 169.001 289.016 168.861 293.017 169.23C296.921 169.59 300.767 170.423 304.471 171.711Z" fill="url(#paint0_linear)"/>
<path d="M330.159 192.821L294.093 264.93C286.308 265.799 278.429 264.766 271.132 261.919L313.973 176.236C320.636 180.366 326.192 186.059 330.159 192.821Z" fill="url(#paint1_linear)"/>
<path d="M415.435 172.134L381.896 239.196C374.97 234.562 369.765 227.775 367.085 219.884L391.091 171.88C399.012 169.277 407.571 169.366 415.435 172.134Z" fill="url(#paint2_linear)"/>
<path d="M439.164 197.161L416.157 243.152C408.201 246.126 399.478 246.345 391.383 243.774L424.776 176.981C431.696 181.907 436.762 189.013 439.164 197.161Z" fill="url(#paint3_linear)"/>
<path d="M288.777 268.802C287.205 268.802 285.622 268.73 284.029 268.587C270.631 267.358 258.245 260.936 249.521 250.693C240.796 240.45 236.426 227.201 237.345 213.777C238.264 200.354 244.399 187.823 254.438 178.865C264.477 169.907 277.622 165.232 291.063 165.841C304.504 166.45 317.173 172.294 326.36 182.124C335.548 191.953 340.525 204.987 340.226 218.439C339.927 231.89 334.377 244.69 324.762 254.102C315.147 263.514 302.231 268.79 288.777 268.802ZM288.654 172.641C277.062 172.664 265.939 177.224 257.666 185.344C249.392 193.464 244.626 204.499 244.385 216.089C244.144 227.679 248.448 238.903 256.377 247.359C264.306 255.816 275.23 260.833 286.811 261.339C298.392 261.844 309.711 257.797 318.347 250.064C326.982 242.33 332.248 231.524 333.018 219.957C333.788 208.391 330 196.982 322.466 188.172C314.931 179.362 304.248 173.851 292.702 172.817C291.343 172.702 290.006 172.641 288.654 172.641Z" fill="#000072"/>
<g opacity="0.1">
<path opacity="0.1" d="M440.509 211.18C439.796 219.018 436.654 226.437 431.52 232.402C426.386 238.366 419.518 242.578 411.874 244.45C404.23 246.321 396.193 245.758 388.884 242.84C381.576 239.921 375.361 234.793 371.109 228.171C366.857 221.549 364.779 213.764 365.166 205.904C365.553 198.044 368.386 190.501 373.268 184.329C378.15 178.157 384.838 173.664 392.398 171.477C399.958 169.291 408.012 169.52 415.435 172.134C418.763 173.298 421.908 174.93 424.776 176.981C430.17 180.799 434.463 185.969 437.225 191.973C439.986 197.976 441.119 204.601 440.509 211.18Z" fill="white"/>
</g>
<path d="M402.929 249.136C401.669 249.136 400.402 249.083 399.126 248.967C388.368 247.992 378.419 242.845 371.407 234.628C364.395 226.411 360.876 215.776 361.604 204.999C362.332 194.221 367.249 184.156 375.302 176.957C383.355 169.757 393.906 165.995 404.698 166.475C415.489 166.954 425.665 171.638 433.048 179.523C440.43 187.409 444.435 197.87 444.204 208.67C443.972 219.469 439.524 229.75 431.811 237.312C424.098 244.875 413.731 249.119 402.929 249.136ZM402.829 173.57C396.198 173.576 389.712 175.51 384.16 179.136C378.608 182.762 374.23 187.924 371.559 193.993C368.888 200.063 368.039 206.777 369.115 213.32C370.191 219.864 373.147 225.953 377.621 230.847C382.095 235.74 387.896 239.228 394.317 240.885C400.738 242.541 407.502 242.296 413.785 240.178C420.069 238.059 425.601 234.16 429.709 228.955C433.817 223.749 436.322 217.462 436.921 210.858L440.485 211.18L436.921 210.858C437.726 201.836 434.925 192.862 429.131 185.9C423.336 178.938 415.02 174.554 406.002 173.708C404.936 173.616 403.889 173.57 402.86 173.57H402.829Z" fill="#000072"/>
<path d="M336.358 214.33C335.556 214.332 334.777 214.065 334.145 213.571C333.514 213.078 333.066 212.386 332.874 211.608C332.682 210.83 332.756 210.01 333.086 209.279C333.415 208.548 333.981 207.949 334.691 207.578C335.459 207.186 353.204 198.106 367.108 207.324C367.86 207.865 368.373 208.676 368.54 209.587C368.706 210.498 368.513 211.438 368.001 212.21C367.489 212.981 366.698 213.525 365.794 213.725C364.889 213.926 363.943 213.768 363.152 213.285C352.79 206.418 338.148 213.854 338.002 213.93C337.493 214.191 336.93 214.328 336.358 214.33Z" fill="#000072"/>
<path d="M377.003 400.653C377.003 400.653 368.123 390.121 345.177 392.971C333.239 394.438 304.847 406.491 309.072 430.259C312.637 450.316 336.435 446.014 367.024 443.041C367.024 443.041 387.581 441.505 396.315 432.886C405.049 424.267 403.067 409.21 399.971 401.26" fill="white"/>
<path d="M335.037 449.102C319.581 449.102 308.15 445.415 305.554 430.85C304.808 426.938 304.898 422.912 305.818 419.037C306.738 415.162 308.468 411.525 310.893 408.366C319.673 396.482 336.312 390.421 344.739 389.384C369.321 386.365 379.307 397.834 379.737 398.348C380.259 399.08 380.486 399.98 380.375 400.871C380.263 401.763 379.821 402.579 379.135 403.159C378.45 403.74 377.571 404.041 376.674 404.004C375.776 403.966 374.926 403.593 374.291 402.957C373.907 402.527 365.995 393.954 345.615 396.459C337.833 397.411 323.698 403.05 316.654 412.591C314.818 414.973 313.507 417.718 312.807 420.644C312.108 423.571 312.037 426.612 312.598 429.567C315.164 444.017 330.336 443.164 359.142 440.176C361.593 439.922 364.097 439.661 366.648 439.408C372.086 438.993 387.389 436.55 393.772 430.266C401.008 423.13 399.434 409.748 396.607 402.489C396.418 402.048 396.32 401.573 396.318 401.093C396.316 400.613 396.411 400.137 396.597 399.694C396.783 399.252 397.056 398.851 397.4 398.516C397.743 398.181 398.151 397.918 398.599 397.744C399.046 397.57 399.524 397.488 400.004 397.502C400.484 397.516 400.956 397.627 401.392 397.827C401.828 398.027 402.22 398.314 402.543 398.668C402.867 399.023 403.115 399.44 403.275 399.892C406.294 407.651 409.251 425.058 398.796 435.367C389.24 444.785 368.153 446.467 367.301 446.537C364.842 446.775 362.346 447.036 359.911 447.305C351.03 448.227 342.557 449.102 335.037 449.102Z" fill="#000072"/>
<path d="M400.256 373.129C400.256 373.129 402.56 342.962 427.188 341.633C461.887 339.797 475.269 334.942 475.269 334.942V346.066L457.654 365.27L400.256 373.129Z" fill="white"/>
<path d="M475.269 334.973V346.096L457.654 365.301L400.256 373.16C400.256 373.16 402.56 342.993 427.188 341.664C461.887 339.828 475.269 334.973 475.269 334.973ZM475.269 328.828C474.564 328.83 473.866 328.952 473.202 329.189C472.949 329.281 459.698 333.798 426.865 335.526C414.413 336.187 404.757 343.001 398.957 355.238C396.401 360.73 394.778 366.611 394.156 372.637C394.095 373.477 394.207 374.32 394.486 375.115C394.764 375.91 395.203 376.639 395.775 377.257C396.347 377.875 397.04 378.369 397.811 378.708C398.581 379.047 399.414 379.224 400.256 379.228C400.533 379.227 400.81 379.206 401.085 379.167L458.484 371.316C459.897 371.12 461.198 370.438 462.164 369.388L479.778 350.183C480.813 349.053 481.389 347.576 481.391 346.043V334.973C481.391 333.343 480.744 331.78 479.591 330.628C478.439 329.475 476.876 328.828 475.246 328.828H475.269Z" fill="#000072"/>
<path d="M406.847 364.817C406.847 364.817 401.923 350.882 382.464 345.175C363.659 339.651 328.692 347.932 286.641 342.778L243.231 399.247L336.266 425.58L406.847 364.817Z" fill="white"/>
<path d="M286.641 342.778C297.022 344.008 307.468 344.6 317.922 344.552C335.467 344.552 350.954 343.185 363.536 343.185C370.934 343.185 377.31 343.661 382.464 345.175C401.923 350.882 406.847 364.817 406.847 364.817L336.266 425.58L243.231 399.247L286.641 342.778ZM283.469 335.196L280.987 338.43L237.57 394.892L231.148 403.242L241.288 406.115L334.322 432.494L338.017 433.547L340.929 431.035L411.509 370.24L415.212 367.053L413.584 362.443C413.33 361.737 407.169 344.998 384.477 338.338C379.1 336.763 372.647 336.033 363.536 336.033C357.621 336.033 351.092 336.333 344.186 336.64C336.251 337.001 327.286 337.408 317.922 337.408C307.761 337.46 297.608 336.89 287.517 335.703L283.469 335.204V335.196Z" fill="#000072"/>
<path d="M409.021 361.975L330.274 465.111H205.214L266.976 384.099L291.834 351.489L409.021 361.975Z" fill="#1698F9"/>
<g opacity="0.5">
<path opacity="0.5" d="M263.918 392.825L288.769 360.223L402.929 370.433L407.999 363.788L290.812 353.31L265.954 385.911L204.2 466.924H207.426L263.918 392.825Z" fill="white"/>
</g>
<g opacity="0.3">
<path opacity="0.3" d="M285.074 465.111H205.183L266.96 384.099C277.008 388.708 291.412 398.103 290.974 413.996C290.305 438.332 263.611 448.411 262.597 455.532C262.198 458.428 272.576 461.954 285.074 465.111Z" fill="#000072"/>
</g>
<path d="M483.427 340.665L435.869 397.196L394.855 445.96L392.397 448.879L330.274 465.111L409.021 361.975L483.427 340.665Z" fill="#1698F9"/>
<g opacity="0.5">
<path opacity="0.5" d="M404.942 371.155L472.288 351.866L483.427 338.622L409.021 359.939L330.274 463.068L335.882 461.608L404.942 371.155Z" fill="white"/>
</g>
<path d="M330.274 468.691H205.221C204.555 468.69 203.903 468.502 203.337 468.15C202.772 467.798 202.316 467.295 202.02 466.698C201.725 466.101 201.602 465.434 201.666 464.771C201.729 464.107 201.976 463.475 202.379 462.945L288.984 349.323C289.35 348.84 289.832 348.459 290.386 348.214C290.939 347.969 291.546 347.87 292.149 347.925L409.336 358.41C409.973 358.466 410.585 358.691 411.105 359.064C411.626 359.436 412.037 359.942 412.295 360.528C412.554 361.114 412.65 361.758 412.574 362.394C412.498 363.029 412.252 363.633 411.863 364.141L333.116 467.285C332.782 467.722 332.352 468.075 331.859 468.319C331.366 468.563 330.824 468.69 330.274 468.691ZM212.419 461.531H328.507L402.253 364.955L293.478 355.23L212.419 461.531Z" fill="#000072"/>
<path d="M330.274 468.691C329.607 468.692 328.952 468.507 328.385 468.156C327.818 467.804 327.36 467.301 327.064 466.703C326.769 466.104 326.646 465.435 326.711 464.771C326.776 464.107 327.026 463.474 327.432 462.945L406.178 359.801C406.643 359.186 407.296 358.741 408.037 358.533L482.444 337.239C483.18 337.03 483.965 337.063 484.682 337.333C485.398 337.603 486.01 338.096 486.426 338.739C486.842 339.382 487.041 340.141 486.993 340.905C486.946 341.67 486.654 342.399 486.162 342.985L395.14 451.184C394.661 451.75 394.02 452.155 393.304 452.344L331.181 468.599C330.883 468.667 330.579 468.698 330.274 468.691ZM411.141 365.086L339.423 459.027L390.392 445.707L473.141 347.333L411.141 365.086Z" fill="#000072"/>
<path d="M284.705 407.528C283.092 427.27 265.424 448.91 241.134 449.463C226.078 449.817 219.878 452.405 211.413 457.038C206.512 459.711 192.915 461.455 177.92 461.355C159.153 461.24 138.19 458.282 129.302 450.654C112.886 436.596 155.42 373.16 176.752 358.618L195.189 414.288C195.704 413.458 196.226 412.66 196.779 411.861C197.778 410.363 198.845 408.911 199.936 407.528C214.639 388.731 235.565 379.873 253.133 379.681C272.676 379.436 286.165 389.706 284.705 407.528Z" fill="#F9A528"/>
<path d="M284.705 407.528C283.092 427.27 265.424 448.91 241.134 449.463C226.078 449.817 219.878 452.405 211.413 457.038C206.512 459.711 192.915 461.455 177.92 461.355C181.644 455.541 184.414 449.169 186.124 442.48C190.657 425.081 194.336 416.262 196.756 411.838C198.784 408.127 199.913 407.505 199.913 407.505C214.616 388.708 235.542 379.85 253.11 379.658C272.676 379.436 286.165 389.706 284.705 407.528Z" fill="white"/>
<path d="M177.083 359.11C174.125 362.182 171.483 365.455 168.871 368.758C166.259 372.061 163.747 375.403 161.266 378.783C156.319 385.55 151.38 392.333 146.986 399.462C142.557 406.502 138.641 413.852 135.271 421.455C133.639 425.148 132.288 428.959 131.23 432.855C130.247 436.627 129.694 440.537 130.254 443.61C130.388 444.293 130.594 444.96 130.869 445.599C131.12 446.123 131.446 446.607 131.837 447.036C131.944 447.136 132.044 447.228 132.137 447.328L132.605 447.72C132.935 447.973 133.273 448.234 133.634 448.488C134.376 448.992 135.145 449.454 135.939 449.87C139.456 451.611 143.163 452.938 146.986 453.827C155.049 455.681 163.269 456.769 171.537 457.076C179.856 457.488 188.194 457.265 196.48 456.408C198.523 456.185 200.551 455.901 202.533 455.54C204.419 455.213 206.278 454.745 208.095 454.142C208.502 453.996 208.863 453.834 209.201 453.688C209.539 453.542 210.015 453.266 210.468 453.02C211.436 452.505 212.419 451.983 213.433 451.484C215.484 450.463 217.592 449.562 219.748 448.787C224.094 447.289 228.61 446.337 233.191 445.953C235.411 445.753 237.639 445.599 239.828 445.546C240.988 445.546 241.902 445.461 242.901 445.415C243.9 445.369 244.829 445.254 245.774 445.085C253.496 443.849 260.679 440.352 266.415 435.037C272.257 429.733 276.628 423.009 279.105 415.517C279.697 413.673 280.144 411.785 280.442 409.871C280.75 408.011 280.881 406.125 280.834 404.24C280.783 400.672 279.755 397.186 277.861 394.162C275.883 391.22 273.157 388.857 269.964 387.317C266.564 385.689 262.912 384.65 259.163 384.244C251.482 383.261 243.339 384.245 235.603 386.48C231.714 387.649 227.925 389.128 224.272 390.905C220.592 392.727 217.06 394.836 213.71 397.211C206.895 402.101 200.832 407.96 195.711 414.603C195.622 414.728 195.488 414.814 195.337 414.844C195.186 414.874 195.03 414.846 194.899 414.765C194.769 414.684 194.673 414.556 194.633 414.408C194.593 414.26 194.61 414.101 194.682 413.966C202.677 397.956 216.472 385.594 233.26 379.397C237.505 377.809 241.909 376.686 246.396 376.048C250.956 375.365 255.585 375.269 260.17 375.764C264.929 376.261 269.557 377.623 273.828 379.781C278.325 382.056 282.121 385.507 284.813 389.768C287.395 394.095 288.776 399.032 288.815 404.071C288.826 408.795 288.076 413.49 286.595 417.975C283.696 426.791 278.561 434.704 271.692 440.944C264.801 447.301 256.185 451.478 246.926 452.951C245.774 453.151 244.622 453.235 243.439 453.343C242.256 453.45 241.065 453.466 240.089 453.496C238.015 453.542 235.98 453.688 233.944 453.865C230.019 454.198 226.149 455.011 222.421 456.285C220.563 456.953 218.749 457.738 216.99 458.635C216.084 459.089 215.177 459.573 214.263 460.064C213.787 460.325 213.441 460.525 212.727 460.894C212.125 461.181 211.51 461.437 210.883 461.662C208.66 462.438 206.379 463.036 204.062 463.452C201.842 463.867 199.645 464.22 197.448 464.451C188.748 465.399 179.989 465.697 171.245 465.342C162.429 465.111 153.655 464.04 145.042 462.146C140.524 461.152 136.141 459.625 131.983 457.598C130.884 457.041 129.819 456.417 128.795 455.732C128.265 455.386 127.743 454.964 127.259 454.602L126.49 453.98L125.638 453.166C124.555 452.035 123.66 450.739 122.987 449.325C122.392 448.016 121.951 446.642 121.674 445.231C121.225 442.695 121.15 440.107 121.451 437.549C121.711 435.214 122.147 432.903 122.757 430.635C123.926 426.285 125.449 422.038 127.312 417.937C130.938 409.957 135.208 402.286 140.08 394.999C144.791 387.675 150.08 380.74 155.896 374.258C158.849 371.036 162.016 368.018 165.376 365.224C167.071 363.822 168.841 362.512 170.676 361.299C172.509 360.059 174.45 358.986 176.476 358.096C176.622 358.043 176.783 358.049 176.925 358.11C177.067 358.171 177.182 358.284 177.244 358.426C177.292 358.536 177.306 358.658 177.286 358.777C177.265 358.896 177.211 359.006 177.129 359.094L177.083 359.11Z" fill="#000072"/>
<g opacity="0.3">
<path opacity="0.3" d="M435.869 397.196L394.848 445.96C394.4 445.78 394.002 445.494 393.688 445.128C393.374 444.762 393.153 444.325 393.042 443.856C391.076 436.105 403.252 420.042 410.711 410.055C422.564 394.292 431.352 394.991 435.869 397.196Z" fill="#000072"/>
</g>
<path d="M451.77 389.222C451.77 389.222 440.885 375.925 423.194 399.516C415.696 409.502 403.528 425.573 405.525 433.316C408.498 445.215 462.671 412.821 451.77 389.222Z" fill="white"/>
<g opacity="0.3">
<path opacity="0.3" d="M452.999 398.648C449.581 420.426 408.114 443.679 405.487 433.324C404.273 428.515 408.498 420.51 413.676 412.736C413.137 414.43 413.034 416.232 413.376 417.975C415.373 425.865 439.909 414.25 452.999 398.648Z" fill="#000072"/>
</g>
<path d="M409.681 439.408C408.922 439.415 408.165 439.341 407.423 439.185C406.141 438.956 404.952 438.362 403.999 437.475C403.045 436.588 402.367 435.446 402.045 434.184C399.879 425.619 409.305 412.099 420.006 397.834L420.351 397.373C427.926 387.271 435.508 382.071 442.882 381.917C445.075 381.87 447.252 382.295 449.266 383.165C451.279 384.034 453.082 385.328 454.551 386.956L454.835 387.31L455.027 387.724C458.799 395.875 456.563 405.393 448.659 415.318C438.357 428.139 419.767 439.408 409.681 439.408ZM408.913 432.225C411.986 433.308 425.921 427.701 437.505 416.862C442.268 412.391 452.753 401.06 448.759 391.258C447.168 389.795 445.065 389.019 442.905 389.099C439.433 389.222 433.687 391.504 426.059 401.69L425.705 402.159C419.829 409.94 407.722 426.095 408.905 432.233L408.913 432.225Z" fill="#000072"/>
<g opacity="0.3">
<path opacity="0.3" d="M284.705 407.528C283.092 427.27 265.424 448.91 241.134 449.463C226.078 449.817 219.878 452.405 211.413 457.038C206.512 459.711 192.915 461.455 177.92 461.355C159.153 461.24 138.19 458.282 129.302 450.654C120.629 443.233 128.403 422.024 140.825 401.49C135.801 413.996 134.479 424.666 140.118 429.491C148.998 437.103 169.962 440.076 188.728 440.191C203.723 440.291 208.878 438.133 217.658 434.584C234.942 427.608 244.284 434.207 259.225 432.387C277.308 430.19 281.502 411.861 282.27 393.624C284.389 397.932 285.234 402.756 284.705 407.528Z" fill="#000072"/>
</g>
<defs>
<linearGradient id="paint0_linear" x1="275.287" y1="174.185" x2="275.287" y2="241.839" gradientUnits="userSpaceOnUse">
<stop stop-color="white" stop-opacity="0.75"/>
<stop offset="1" stop-color="white" stop-opacity="0"/>
<stop offset="1" stop-color="white" stop-opacity="0"/>
</linearGradient>
<linearGradient id="paint1_linear" x1="319.215" y1="183.212" x2="300.645" y2="265.229" gradientUnits="userSpaceOnUse">
<stop stop-color="white" stop-opacity="0.6"/>
<stop offset="1" stop-color="white" stop-opacity="0"/>
</linearGradient>
<linearGradient id="paint2_linear" x1="391.26" y1="169.991" x2="391.26" y2="239.196" gradientUnits="userSpaceOnUse">
<stop stop-color="white"/>
<stop offset="1" stop-color="white" stop-opacity="0"/>
</linearGradient>
<linearGradient id="paint3_linear" x1="431.753" y1="158.246" x2="415.273" y2="245.554" gradientUnits="userSpaceOnUse">
<stop stop-color="white"/>
<stop offset="1" stop-color="white" stop-opacity="0"/>
</linearGradient>
</defs>
</svg>
